<mxfile host="app.diagrams.net" modified="2022-11-05T23:40:07.691Z" agent="5.0 (Windows NT 10.0; Win64; x64) AppleWebKit/537.36 (KHTML, like Gecko) Chrome/107.0.0.0 Safari/537.36" etag="oYLeZ5v5R6_m75XckD2f" version="20.5.2" type="github">
  <diagram id="C5RBs43oDa-KdzZeNtuy" name="Page-1">
    <mxGraphModel dx="1422" dy="794" grid="1" gridSize="10" guides="1" tooltips="1" connect="1" arrows="1" fold="1" page="1" pageScale="1" pageWidth="827" pageHeight="1169" math="0" shadow="0">
      <root>
        <mxCell id="WIyWlLk6GJQsqaUBKTNV-0" />
        <mxCell id="WIyWlLk6GJQsqaUBKTNV-1" parent="WIyWlLk6GJQsqaUBKTNV-0" />
        <mxCell id="pvgt4qvxZRQ9d5zmDmnY-2" style="edgeStyle=orthogonalEdgeStyle;rounded=0;orthogonalLoop=1;jettySize=auto;html=1;exitX=0.5;exitY=1;exitDx=0;exitDy=0;entryX=0.5;entryY=0;entryDx=0;entryDy=0;" edge="1" parent="WIyWlLk6GJQsqaUBKTNV-1" source="pvgt4qvxZRQ9d5zmDmnY-0" target="pvgt4qvxZRQ9d5zmDmnY-4">
          <mxGeometry relative="1" as="geometry">
            <mxPoint x="420" y="130" as="targetPoint" />
          </mxGeometry>
        </mxCell>
        <mxCell id="pvgt4qvxZRQ9d5zmDmnY-0" value="START" style="ellipse;whiteSpace=wrap;html=1;fontSize=20;fontFamily=Comic Sans MS;fontStyle=1;fillColor=#d5e8d4;strokeColor=#82b366;gradientColor=#209E5F;gradientDirection=radial;" vertex="1" parent="WIyWlLk6GJQsqaUBKTNV-1">
          <mxGeometry x="360" y="10" width="120" height="80" as="geometry" />
        </mxCell>
        <mxCell id="pvgt4qvxZRQ9d5zmDmnY-6" style="edgeStyle=orthogonalEdgeStyle;rounded=0;orthogonalLoop=1;jettySize=auto;html=1;exitX=0.5;exitY=1;exitDx=0;exitDy=0;entryX=0.5;entryY=0;entryDx=0;entryDy=0;fontFamily=Comic Sans MS;fontSize=15;" edge="1" parent="WIyWlLk6GJQsqaUBKTNV-1" source="pvgt4qvxZRQ9d5zmDmnY-4" target="pvgt4qvxZRQ9d5zmDmnY-5">
          <mxGeometry relative="1" as="geometry" />
        </mxCell>
        <mxCell id="pvgt4qvxZRQ9d5zmDmnY-4" value="INPUT OP" style="shape=parallelogram;perimeter=parallelogramPerimeter;whiteSpace=wrap;html=1;fixedSize=1;fontFamily=Comic Sans MS;fontSize=15;fillColor=#dae8fc;strokeColor=#6c8ebf;" vertex="1" parent="WIyWlLk6GJQsqaUBKTNV-1">
          <mxGeometry x="360" y="110" width="120" height="50" as="geometry" />
        </mxCell>
        <mxCell id="pvgt4qvxZRQ9d5zmDmnY-25" style="edgeStyle=orthogonalEdgeStyle;rounded=0;orthogonalLoop=1;jettySize=auto;html=1;exitX=0.5;exitY=1;exitDx=0;exitDy=0;entryX=0.5;entryY=0;entryDx=0;entryDy=0;fontFamily=Comic Sans MS;fontSize=18;" edge="1" parent="WIyWlLk6GJQsqaUBKTNV-1" source="pvgt4qvxZRQ9d5zmDmnY-5" target="pvgt4qvxZRQ9d5zmDmnY-24">
          <mxGeometry relative="1" as="geometry" />
        </mxCell>
        <mxCell id="pvgt4qvxZRQ9d5zmDmnY-5" value="INPUT a, b" style="shape=parallelogram;perimeter=parallelogramPerimeter;whiteSpace=wrap;html=1;fixedSize=1;fontFamily=Comic Sans MS;fontSize=15;fillColor=#dae8fc;gradientDirection=radial;strokeColor=#6c8ebf;" vertex="1" parent="WIyWlLk6GJQsqaUBKTNV-1">
          <mxGeometry x="360" y="180" width="120" height="50" as="geometry" />
        </mxCell>
        <mxCell id="pvgt4qvxZRQ9d5zmDmnY-13" style="edgeStyle=orthogonalEdgeStyle;rounded=0;orthogonalLoop=1;jettySize=auto;html=1;exitX=0.5;exitY=1;exitDx=0;exitDy=0;entryX=0.5;entryY=0;entryDx=0;entryDy=0;fontFamily=Comic Sans MS;fontSize=15;" edge="1" parent="WIyWlLk6GJQsqaUBKTNV-1" source="pvgt4qvxZRQ9d5zmDmnY-8" target="pvgt4qvxZRQ9d5zmDmnY-9">
          <mxGeometry relative="1" as="geometry" />
        </mxCell>
        <mxCell id="pvgt4qvxZRQ9d5zmDmnY-20" style="edgeStyle=orthogonalEdgeStyle;rounded=0;orthogonalLoop=1;jettySize=auto;html=1;exitX=1;exitY=0.5;exitDx=0;exitDy=0;fontFamily=Comic Sans MS;fontSize=15;" edge="1" parent="WIyWlLk6GJQsqaUBKTNV-1" source="pvgt4qvxZRQ9d5zmDmnY-8" target="pvgt4qvxZRQ9d5zmDmnY-16">
          <mxGeometry relative="1" as="geometry" />
        </mxCell>
        <mxCell id="pvgt4qvxZRQ9d5zmDmnY-8" value="&lt;b&gt;if &quot;+&quot;&lt;/b&gt;" style="rhombus;whiteSpace=wrap;html=1;fontFamily=Comic Sans MS;fontSize=15;fillColor=#fff2cc;gradientDirection=radial;strokeColor=#d6b656;" vertex="1" parent="WIyWlLk6GJQsqaUBKTNV-1">
          <mxGeometry x="380" y="360" width="80" height="80" as="geometry" />
        </mxCell>
        <mxCell id="pvgt4qvxZRQ9d5zmDmnY-14" style="edgeStyle=orthogonalEdgeStyle;rounded=0;orthogonalLoop=1;jettySize=auto;html=1;exitX=0.5;exitY=1;exitDx=0;exitDy=0;entryX=0.5;entryY=0;entryDx=0;entryDy=0;fontFamily=Comic Sans MS;fontSize=15;" edge="1" parent="WIyWlLk6GJQsqaUBKTNV-1" source="pvgt4qvxZRQ9d5zmDmnY-9" target="pvgt4qvxZRQ9d5zmDmnY-10">
          <mxGeometry relative="1" as="geometry" />
        </mxCell>
        <mxCell id="pvgt4qvxZRQ9d5zmDmnY-21" style="edgeStyle=orthogonalEdgeStyle;rounded=0;orthogonalLoop=1;jettySize=auto;html=1;exitX=1;exitY=0.5;exitDx=0;exitDy=0;entryX=0;entryY=0.5;entryDx=0;entryDy=0;fontFamily=Comic Sans MS;fontSize=15;" edge="1" parent="WIyWlLk6GJQsqaUBKTNV-1" source="pvgt4qvxZRQ9d5zmDmnY-9" target="pvgt4qvxZRQ9d5zmDmnY-17">
          <mxGeometry relative="1" as="geometry" />
        </mxCell>
        <mxCell id="pvgt4qvxZRQ9d5zmDmnY-9" value="if &quot;-&quot;" style="rhombus;whiteSpace=wrap;html=1;fontFamily=Comic Sans MS;fontSize=15;fillColor=#fff2cc;gradientDirection=radial;strokeColor=#d6b656;fontStyle=1" vertex="1" parent="WIyWlLk6GJQsqaUBKTNV-1">
          <mxGeometry x="380" y="460" width="80" height="80" as="geometry" />
        </mxCell>
        <mxCell id="pvgt4qvxZRQ9d5zmDmnY-15" style="edgeStyle=orthogonalEdgeStyle;rounded=0;orthogonalLoop=1;jettySize=auto;html=1;exitX=0.5;exitY=1;exitDx=0;exitDy=0;entryX=0.5;entryY=0;entryDx=0;entryDy=0;fontFamily=Comic Sans MS;fontSize=15;" edge="1" parent="WIyWlLk6GJQsqaUBKTNV-1" source="pvgt4qvxZRQ9d5zmDmnY-10" target="pvgt4qvxZRQ9d5zmDmnY-11">
          <mxGeometry relative="1" as="geometry" />
        </mxCell>
        <mxCell id="pvgt4qvxZRQ9d5zmDmnY-22" style="edgeStyle=orthogonalEdgeStyle;rounded=0;orthogonalLoop=1;jettySize=auto;html=1;exitX=1;exitY=0.5;exitDx=0;exitDy=0;entryX=0;entryY=0.5;entryDx=0;entryDy=0;fontFamily=Comic Sans MS;fontSize=15;" edge="1" parent="WIyWlLk6GJQsqaUBKTNV-1" source="pvgt4qvxZRQ9d5zmDmnY-10" target="pvgt4qvxZRQ9d5zmDmnY-18">
          <mxGeometry relative="1" as="geometry" />
        </mxCell>
        <mxCell id="pvgt4qvxZRQ9d5zmDmnY-10" value="if &quot;*&quot;" style="rhombus;whiteSpace=wrap;html=1;fontFamily=Comic Sans MS;fontSize=15;fillColor=#fff2cc;gradientDirection=radial;strokeColor=#d6b656;fontStyle=1" vertex="1" parent="WIyWlLk6GJQsqaUBKTNV-1">
          <mxGeometry x="380" y="560" width="80" height="80" as="geometry" />
        </mxCell>
        <mxCell id="pvgt4qvxZRQ9d5zmDmnY-23" style="edgeStyle=orthogonalEdgeStyle;rounded=0;orthogonalLoop=1;jettySize=auto;html=1;exitX=1;exitY=0.5;exitDx=0;exitDy=0;entryX=0;entryY=0.5;entryDx=0;entryDy=0;fontFamily=Comic Sans MS;fontSize=15;" edge="1" parent="WIyWlLk6GJQsqaUBKTNV-1" source="pvgt4qvxZRQ9d5zmDmnY-11" target="pvgt4qvxZRQ9d5zmDmnY-19">
          <mxGeometry relative="1" as="geometry" />
        </mxCell>
        <mxCell id="pvgt4qvxZRQ9d5zmDmnY-32" style="edgeStyle=orthogonalEdgeStyle;rounded=0;orthogonalLoop=1;jettySize=auto;html=1;exitX=0.5;exitY=1;exitDx=0;exitDy=0;fontFamily=Comic Sans MS;fontSize=18;" edge="1" parent="WIyWlLk6GJQsqaUBKTNV-1" source="pvgt4qvxZRQ9d5zmDmnY-11" target="pvgt4qvxZRQ9d5zmDmnY-29">
          <mxGeometry relative="1" as="geometry" />
        </mxCell>
        <mxCell id="pvgt4qvxZRQ9d5zmDmnY-11" value="if &quot;/&quot;" style="rhombus;whiteSpace=wrap;html=1;fontFamily=Comic Sans MS;fontSize=15;fillColor=#fff2cc;gradientDirection=radial;strokeColor=#d6b656;fontStyle=1" vertex="1" parent="WIyWlLk6GJQsqaUBKTNV-1">
          <mxGeometry x="380" y="660" width="80" height="80" as="geometry" />
        </mxCell>
        <mxCell id="pvgt4qvxZRQ9d5zmDmnY-16" value="a + b" style="shape=parallelogram;perimeter=parallelogramPerimeter;whiteSpace=wrap;html=1;fixedSize=1;fontFamily=Comic Sans MS;fontSize=15;fillColor=#eeeeee;gradientDirection=radial;strokeColor=#36393d;" vertex="1" parent="WIyWlLk6GJQsqaUBKTNV-1">
          <mxGeometry x="560" y="370" width="120" height="60" as="geometry" />
        </mxCell>
        <mxCell id="pvgt4qvxZRQ9d5zmDmnY-17" value="" style="shape=parallelogram;perimeter=parallelogramPerimeter;whiteSpace=wrap;html=1;fixedSize=1;fontFamily=Comic Sans MS;fontSize=15;fillColor=#eeeeee;gradientDirection=radial;strokeColor=#36393d;" vertex="1" parent="WIyWlLk6GJQsqaUBKTNV-1">
          <mxGeometry x="560" y="470" width="120" height="60" as="geometry" />
        </mxCell>
        <mxCell id="pvgt4qvxZRQ9d5zmDmnY-18" value="" style="shape=parallelogram;perimeter=parallelogramPerimeter;whiteSpace=wrap;html=1;fixedSize=1;fontFamily=Comic Sans MS;fontSize=15;fillColor=#eeeeee;gradientDirection=radial;strokeColor=#36393d;" vertex="1" parent="WIyWlLk6GJQsqaUBKTNV-1">
          <mxGeometry x="560" y="570" width="120" height="60" as="geometry" />
        </mxCell>
        <mxCell id="pvgt4qvxZRQ9d5zmDmnY-19" value="" style="shape=parallelogram;perimeter=parallelogramPerimeter;whiteSpace=wrap;html=1;fixedSize=1;fontFamily=Comic Sans MS;fontSize=15;fillColor=#eeeeee;gradientDirection=radial;strokeColor=#36393d;" vertex="1" parent="WIyWlLk6GJQsqaUBKTNV-1">
          <mxGeometry x="560" y="670" width="120" height="60" as="geometry" />
        </mxCell>
        <mxCell id="pvgt4qvxZRQ9d5zmDmnY-26" style="edgeStyle=orthogonalEdgeStyle;rounded=0;orthogonalLoop=1;jettySize=auto;html=1;exitX=0.5;exitY=1;exitDx=0;exitDy=0;fontFamily=Comic Sans MS;fontSize=18;" edge="1" parent="WIyWlLk6GJQsqaUBKTNV-1" source="pvgt4qvxZRQ9d5zmDmnY-24" target="pvgt4qvxZRQ9d5zmDmnY-8">
          <mxGeometry relative="1" as="geometry" />
        </mxCell>
        <mxCell id="pvgt4qvxZRQ9d5zmDmnY-24" value="CALCULATE" style="rounded=0;whiteSpace=wrap;html=1;fontFamily=Comic Sans MS;fontSize=18;fillColor=#e1d5e7;gradientDirection=radial;strokeColor=#9673a6;fontStyle=2" vertex="1" parent="WIyWlLk6GJQsqaUBKTNV-1">
          <mxGeometry x="280" y="270" width="280" height="60" as="geometry" />
        </mxCell>
        <mxCell id="pvgt4qvxZRQ9d5zmDmnY-27" value="" style="shape=parallelogram;perimeter=parallelogramPerimeter;whiteSpace=wrap;html=1;fixedSize=1;fontFamily=Comic Sans MS;fontSize=15;fillColor=#eeeeee;gradientDirection=radial;strokeColor=#36393d;" vertex="1" parent="WIyWlLk6GJQsqaUBKTNV-1">
          <mxGeometry x="560" y="770" width="120" height="60" as="geometry" />
        </mxCell>
        <mxCell id="pvgt4qvxZRQ9d5zmDmnY-33" style="edgeStyle=orthogonalEdgeStyle;rounded=0;orthogonalLoop=1;jettySize=auto;html=1;exitX=1;exitY=0.5;exitDx=0;exitDy=0;entryX=0;entryY=0.5;entryDx=0;entryDy=0;fontFamily=Comic Sans MS;fontSize=18;" edge="1" parent="WIyWlLk6GJQsqaUBKTNV-1" source="pvgt4qvxZRQ9d5zmDmnY-29" target="pvgt4qvxZRQ9d5zmDmnY-27">
          <mxGeometry relative="1" as="geometry" />
        </mxCell>
        <mxCell id="pvgt4qvxZRQ9d5zmDmnY-34" style="edgeStyle=orthogonalEdgeStyle;rounded=0;orthogonalLoop=1;jettySize=auto;html=1;exitX=0.5;exitY=1;exitDx=0;exitDy=0;entryX=0.5;entryY=0;entryDx=0;entryDy=0;fontFamily=Comic Sans MS;fontSize=18;" edge="1" parent="WIyWlLk6GJQsqaUBKTNV-1" source="pvgt4qvxZRQ9d5zmDmnY-29" target="pvgt4qvxZRQ9d5zmDmnY-31">
          <mxGeometry relative="1" as="geometry" />
        </mxCell>
        <mxCell id="pvgt4qvxZRQ9d5zmDmnY-29" value="" style="rhombus;whiteSpace=wrap;html=1;fontFamily=Comic Sans MS;fontSize=15;fillColor=#fff2cc;gradientDirection=radial;strokeColor=#d6b656;" vertex="1" parent="WIyWlLk6GJQsqaUBKTNV-1">
          <mxGeometry x="380" y="760" width="80" height="80" as="geometry" />
        </mxCell>
        <mxCell id="pvgt4qvxZRQ9d5zmDmnY-30" value="" style="shape=parallelogram;perimeter=parallelogramPerimeter;whiteSpace=wrap;html=1;fixedSize=1;fontFamily=Comic Sans MS;fontSize=15;fillColor=#eeeeee;gradientDirection=radial;strokeColor=#36393d;" vertex="1" parent="WIyWlLk6GJQsqaUBKTNV-1">
          <mxGeometry x="560" y="870" width="120" height="60" as="geometry" />
        </mxCell>
        <mxCell id="pvgt4qvxZRQ9d5zmDmnY-35" style="edgeStyle=orthogonalEdgeStyle;rounded=0;orthogonalLoop=1;jettySize=auto;html=1;exitX=1;exitY=0.5;exitDx=0;exitDy=0;entryX=0;entryY=0.5;entryDx=0;entryDy=0;fontFamily=Comic Sans MS;fontSize=18;" edge="1" parent="WIyWlLk6GJQsqaUBKTNV-1" source="pvgt4qvxZRQ9d5zmDmnY-31" target="pvgt4qvxZRQ9d5zmDmnY-30">
          <mxGeometry relative="1" as="geometry" />
        </mxCell>
        <mxCell id="pvgt4qvxZRQ9d5zmDmnY-31" value="" style="rhombus;whiteSpace=wrap;html=1;fontFamily=Comic Sans MS;fontSize=15;fillColor=#fff2cc;gradientDirection=radial;strokeColor=#d6b656;" vertex="1" parent="WIyWlLk6GJQsqaUBKTNV-1">
          <mxGeometry x="380" y="860" width="80" height="80" as="geometry" />
        </mxCell>
      </root>
    </mxGraphModel>
  </diagram>
</mxfile>
